<svg width="237" height="256" viewBox="0 0 237 256" fill="none" xmlns="http://www.w3.org/2000/svg">
<g clip-path="url(#clip0_8926_16769)">
<path d="M105.613 27.1444H97.5615V35.1958H105.613V27.1444Z" fill="black"/>
<path d="M113.665 27.1444H105.613V35.1958H113.665V27.1444Z" fill="black"/>
<path d="M121.715 27.1444H113.664V35.1958H121.715V27.1444Z" fill="black"/>
<path d="M129.767 27.1444H121.716V35.1958H129.767V27.1444Z" fill="black"/>
<path d="M137.819 27.1444H129.768V35.1958H137.819V27.1444Z" fill="black"/>
<path d="M145.871 27.1444H137.819V35.1958H145.871V27.1444Z" fill="black"/>
<path d="M89.5104 35.1958H81.459V43.2472H89.5104V35.1958Z" fill="black"/>
<path d="M105.613 35.1958H97.5615V43.2472H105.613V35.1958Z" fill="black"/>
<path d="M121.715 35.1958H113.664V43.2472H121.715V35.1958Z" fill="black"/>
<path d="M145.871 35.1958H137.819V43.2472H145.871V35.1958Z" fill="black"/>
<path d="M89.5104 43.2472H81.459V51.2986H89.5104V43.2472Z" fill="black"/>
<path d="M97.5612 43.2472H89.5098V51.2986H97.5612V43.2472Z" fill="black"/>
<path d="M105.613 43.2472H97.5615V51.2986H105.613V43.2472Z" fill="black"/>
<path d="M137.819 43.2472H129.768V51.2986H137.819V43.2472Z" fill="black"/>
<path d="M153.922 43.2472H145.87V51.2986H153.922V43.2472Z" fill="black"/>
<path d="M89.5104 51.2987H81.459V59.3501H89.5104V51.2987Z" fill="black"/>
<path d="M105.613 51.2987H97.5615V59.3501H105.613V51.2987Z" fill="black"/>
<path d="M113.665 51.2987H105.613V59.3501H113.665V51.2987Z" fill="black"/>
<path d="M121.715 51.2987H113.664V59.3501H121.715V51.2987Z" fill="black"/>
<path d="M137.819 51.2987H129.768V59.3501H137.819V51.2987Z" fill="black"/>
<path d="M145.871 51.2987H137.819V59.3501H145.871V51.2987Z" fill="black"/>
<path d="M153.922 51.2987H145.87V59.3501H153.922V51.2987Z" fill="black"/>
<path d="M97.5612 59.3501H89.5098V67.4015H97.5612V59.3501Z" fill="black"/>
<path d="M113.665 59.3501H105.613V67.4015H113.665V59.3501Z" fill="black"/>
<path d="M121.715 59.3501H113.664V67.4015H121.715V59.3501Z" fill="black"/>
<path d="M129.767 59.3501H121.716V67.4015H129.767V59.3501Z" fill="black"/>
<path d="M137.819 59.3501H129.768V67.4015H137.819V59.3501Z" fill="black"/>
<path d="M145.871 59.3501H137.819V67.4015H145.871V59.3501Z" fill="black"/>
<path d="M97.5612 67.4015H89.5098V75.4529H97.5612V67.4015Z" fill="black"/>
<path d="M113.665 67.4015H105.613V75.4529H113.665V67.4015Z" fill="black"/>
<path d="M129.767 67.4015H121.716V75.4529H129.767V67.4015Z" fill="black"/>
<path d="M137.819 67.4015H129.768V75.4529H137.819V67.4015Z" fill="black"/>
<path d="M89.5104 75.4529H81.459V83.5044H89.5104V75.4529Z" fill="black"/>
<path d="M105.613 75.4529H97.5615V83.5044H105.613V75.4529Z" fill="black"/>
<path d="M121.715 75.4529H113.664V83.5044H121.715V75.4529Z" fill="black"/>
<path d="M137.819 75.4529H129.768V83.5044H137.819V75.4529Z" fill="black"/>
<path d="M153.922 75.4529H145.87V83.5044H153.922V75.4529Z" fill="black"/>
<path d="M89.5104 83.5043H81.459V91.5557H89.5104V83.5043Z" fill="black"/>
<path d="M121.715 83.5043H113.664V91.5557H121.715V83.5043Z" fill="black"/>
<path d="M129.767 83.5043H121.716V91.5557H129.767V83.5043Z" fill="black"/>
<path d="M25.0993 91.5558H17.0479V99.6072H25.0993V91.5558Z" fill="black"/>
<path d="M73.4069 91.5558H65.3555V99.6072H73.4069V91.5558Z" fill="black"/>
<path d="M89.5104 91.5558H81.459V99.6072H89.5104V91.5558Z" fill="black"/>
<path d="M105.613 91.5558H97.5615V99.6072H105.613V91.5558Z" fill="black"/>
<path d="M113.665 91.5558H105.613V99.6072H113.665V91.5558Z" fill="black"/>
<path d="M121.715 91.5558H113.664V99.6072H121.715V91.5558Z" fill="black"/>
<path d="M137.819 91.5558H129.768V99.6072H137.819V91.5558Z" fill="black"/>
<path d="M145.871 91.5558H137.819V99.6072H145.871V91.5558Z" fill="black"/>
<path d="M161.972 91.5558H153.921V99.6072H161.972V91.5558Z" fill="black"/>
<path d="M170.025 91.5558H161.974V99.6072H170.025V91.5558Z" fill="black"/>
<path d="M194.178 91.5558H186.127V99.6072H194.178V91.5558Z" fill="black"/>
<path d="M202.23 91.5558H194.179V99.6072H202.23V91.5558Z" fill="black"/>
<path d="M210.282 91.5558H202.23V99.6072H210.282V91.5558Z" fill="black"/>
<path d="M33.1501 99.6072H25.0986V107.659H33.1501V99.6072Z" fill="black"/>
<path d="M49.2526 99.6072H41.2012V107.659H49.2526V99.6072Z" fill="black"/>
<path d="M57.3044 99.6072H49.2529V107.659H57.3044V99.6072Z" fill="black"/>
<path d="M65.3561 99.6072H57.3047V107.659H65.3561V99.6072Z" fill="black"/>
<path d="M81.4586 99.6072H73.4072V107.659H81.4586V99.6072Z" fill="black"/>
<path d="M113.665 99.6072H105.613V107.659H113.665V99.6072Z" fill="black"/>
<path d="M137.819 99.6072H129.768V107.659H137.819V99.6072Z" fill="black"/>
<path d="M153.922 99.6072H145.87V107.659H153.922V99.6072Z" fill="black"/>
<path d="M170.025 99.6072H161.974V107.659H170.025V99.6072Z" fill="black"/>
<path d="M194.178 99.6072H186.127V107.659H194.178V99.6072Z" fill="black"/>
<path d="M202.23 99.6072H194.179V107.659H202.23V99.6072Z" fill="black"/>
<path d="M218.333 99.6072H210.281V107.659H218.333V99.6072Z" fill="black"/>
<path d="M33.1501 107.659H25.0986V115.71H33.1501V107.659Z" fill="black"/>
<path d="M49.2526 107.659H41.2012V115.71H49.2526V107.659Z" fill="black"/>
<path d="M57.3044 107.659H49.2529V115.71H57.3044V107.659Z" fill="black"/>
<path d="M65.3561 107.659H57.3047V115.71H65.3561V107.659Z" fill="black"/>
<path d="M73.4069 107.659H65.3555V115.71H73.4069V107.659Z" fill="black"/>
<path d="M105.613 107.659H97.5615V115.71H105.613V107.659Z" fill="black"/>
<path d="M113.665 107.659H105.613V115.71H113.665V107.659Z" fill="black"/>
<path d="M145.871 107.659H137.819V115.71H145.871V107.659Z" fill="black"/>
<path d="M153.922 107.659H145.87V115.71H153.922V107.659Z" fill="black"/>
<path d="M170.025 107.659H161.974V115.71H170.025V107.659Z" fill="black"/>
<path d="M178.076 107.659H170.024V115.71H178.076V107.659Z" fill="black"/>
<path d="M186.127 107.659H178.075V115.71H186.127V107.659Z" fill="black"/>
<path d="M194.178 107.659H186.127V115.71H194.178V107.659Z" fill="black"/>
<path d="M202.23 107.659H194.179V115.71H202.23V107.659Z" fill="black"/>
<path d="M210.282 107.659H202.23V115.71H210.282V107.659Z" fill="black"/>
<path d="M218.333 107.659H210.281V115.71H218.333V107.659Z" fill="black"/>
<path d="M25.0993 115.71H17.0479V123.761H25.0993V115.71Z" fill="black"/>
<path d="M49.2526 115.71H41.2012V123.761H49.2526V115.71Z" fill="black"/>
<path d="M65.3561 115.71H57.3047V123.761H65.3561V115.71Z" fill="black"/>
<path d="M97.5612 115.71H89.5098V123.761H97.5612V115.71Z" fill="black"/>
<path d="M121.715 115.71H113.664V123.761H121.715V115.71Z" fill="black"/>
<path d="M137.819 115.71H129.768V123.761H137.819V115.71Z" fill="black"/>
<path d="M145.871 115.71H137.819V123.761H145.871V115.71Z" fill="black"/>
<path d="M161.972 115.71H153.921V123.761H161.972V115.71Z" fill="black"/>
<path d="M194.178 115.71H186.127V123.761H194.178V115.71Z" fill="black"/>
<path d="M210.282 115.71H202.23V123.761H210.282V115.71Z" fill="black"/>
<path d="M33.1501 123.761H25.0986V131.813H33.1501V123.761Z" fill="black"/>
<path d="M41.2008 123.761H33.1494V131.813H41.2008V123.761Z" fill="black"/>
<path d="M65.3561 123.761H57.3047V131.813H65.3561V123.761Z" fill="black"/>
<path d="M73.4069 123.761H65.3555V131.813H73.4069V123.761Z" fill="black"/>
<path d="M81.4586 123.761H73.4072V131.813H81.4586V123.761Z" fill="black"/>
<path d="M89.5104 123.761H81.459V131.813H89.5104V123.761Z" fill="black"/>
<path d="M97.5612 123.761H89.5098V131.813H97.5612V123.761Z" fill="black"/>
<path d="M129.767 123.761H121.716V131.813H129.767V123.761Z" fill="black"/>
<path d="M137.819 123.761H129.768V131.813H137.819V123.761Z" fill="black"/>
<path d="M145.871 123.761H137.819V131.813H145.871V123.761Z" fill="black"/>
<path d="M153.922 123.761H145.87V131.813H153.922V123.761Z" fill="black"/>
<path d="M170.025 123.761H161.974V131.813H170.025V123.761Z" fill="black"/>
<path d="M178.076 123.761H170.024V131.813H178.076V123.761Z" fill="black"/>
<path d="M186.127 123.761H178.075V131.813H186.127V123.761Z" fill="black"/>
<path d="M202.23 123.761H194.179V131.813H202.23V123.761Z" fill="black"/>
<path d="M218.333 123.761H210.281V131.813H218.333V123.761Z" fill="black"/>
<path d="M25.0993 131.813H17.0479V139.864H25.0993V131.813Z" fill="black"/>
<path d="M41.2008 131.813H33.1494V139.864H41.2008V131.813Z" fill="black"/>
<path d="M49.2526 131.813H41.2012V139.864H49.2526V131.813Z" fill="black"/>
<path d="M97.5612 131.813H89.5098V139.864H97.5612V131.813Z" fill="black"/>
<path d="M105.613 131.813H97.5615V139.864H105.613V131.813Z" fill="black"/>
<path d="M121.715 131.813H113.664V139.864H121.715V131.813Z" fill="black"/>
<path d="M129.767 131.813H121.716V139.864H129.767V131.813Z" fill="black"/>
<path d="M137.819 131.813H129.768V139.864H137.819V131.813Z" fill="black"/>
<path d="M170.025 131.813H161.974V139.864H170.025V131.813Z" fill="black"/>
<path d="M194.178 131.813H186.127V139.864H194.178V131.813Z" fill="black"/>
<path d="M25.0993 139.864H17.0479V147.916H25.0993V139.864Z" fill="black"/>
<path d="M41.2008 139.864H33.1494V147.916H41.2008V139.864Z" fill="black"/>
<path d="M57.3044 139.864H49.2529V147.916H57.3044V139.864Z" fill="black"/>
<path d="M65.3561 139.864H57.3047V147.916H65.3561V139.864Z" fill="black"/>
<path d="M73.4069 139.864H65.3555V147.916H73.4069V139.864Z" fill="black"/>
<path d="M81.4586 139.864H73.4072V147.916H81.4586V139.864Z" fill="black"/>
<path d="M129.767 139.864H121.716V147.916H129.767V139.864Z" fill="black"/>
<path d="M137.819 139.864H129.768V147.916H137.819V139.864Z" fill="black"/>
<path d="M145.871 139.864H137.819V147.916H145.871V139.864Z" fill="black"/>
<path d="M153.922 139.864H145.87V147.916H153.922V139.864Z" fill="black"/>
<path d="M170.025 139.864H161.974V147.916H170.025V139.864Z" fill="black"/>
<path d="M178.076 139.864H170.024V147.916H178.076V139.864Z" fill="black"/>
<path d="M186.127 139.864H178.075V147.916H186.127V139.864Z" fill="black"/>
<path d="M194.178 139.864H186.127V147.916H194.178V139.864Z" fill="black"/>
<path d="M202.23 139.864H194.179V147.916H202.23V139.864Z" fill="black"/>
<path d="M210.282 139.864H202.23V147.916H210.282V139.864Z" fill="black"/>
<path d="M25.0993 147.916H17.0479V155.967H25.0993V147.916Z" fill="black"/>
<path d="M41.2008 147.916H33.1494V155.967H41.2008V147.916Z" fill="black"/>
<path d="M49.2526 147.916H41.2012V155.967H49.2526V147.916Z" fill="black"/>
<path d="M81.4586 147.916H73.4072V155.967H81.4586V147.916Z" fill="black"/>
<path d="M97.5612 147.916H89.5098V155.967H97.5612V147.916Z" fill="black"/>
<path d="M105.613 147.916H97.5615V155.967H105.613V147.916Z" fill="black"/>
<path d="M121.715 147.916H113.664V155.967H121.715V147.916Z" fill="black"/>
<path d="M129.767 147.916H121.716V155.967H129.767V147.916Z" fill="black"/>
<path d="M137.819 147.916H129.768V155.967H137.819V147.916Z" fill="black"/>
<path d="M145.871 147.916H137.819V155.967H145.871V147.916Z" fill="black"/>
<path d="M153.922 147.916H145.87V155.967H153.922V147.916Z" fill="black"/>
<path d="M161.972 147.916H153.921V155.967H161.972V147.916Z" fill="black"/>
<path d="M186.127 147.916H178.075V155.967H186.127V147.916Z" fill="black"/>
<path d="M194.178 147.916H186.127V155.967H194.178V147.916Z" fill="black"/>
<path d="M218.333 147.916H210.281V155.967H218.333V147.916Z" fill="black"/>
<path d="M25.0993 155.967H17.0479V164.019H25.0993V155.967Z" fill="black"/>
<path d="M41.2008 155.967H33.1494V164.019H41.2008V155.967Z" fill="black"/>
<path d="M65.3561 155.967H57.3047V164.019H65.3561V155.967Z" fill="black"/>
<path d="M73.4069 155.967H65.3555V164.019H73.4069V155.967Z" fill="black"/>
<path d="M81.4586 155.967H73.4072V164.019H81.4586V155.967Z" fill="black"/>
<path d="M97.5612 155.967H89.5098V164.019H97.5612V155.967Z" fill="black"/>
<path d="M105.613 155.967H97.5615V164.019H105.613V155.967Z" fill="black"/>
<path d="M121.715 155.967H113.664V164.019H121.715V155.967Z" fill="black"/>
<path d="M137.819 155.967H129.768V164.019H137.819V155.967Z" fill="black"/>
<path d="M145.871 155.967H137.819V164.019H145.871V155.967Z" fill="black"/>
<path d="M153.922 155.967H145.87V164.019H153.922V155.967Z" fill="black"/>
<path d="M161.972 155.967H153.921V164.019H161.972V155.967Z" fill="black"/>
<path d="M170.025 155.967H161.974V164.019H170.025V155.967Z" fill="black"/>
<path d="M178.076 155.967H170.024V164.019H178.076V155.967Z" fill="black"/>
<path d="M186.127 155.967H178.075V164.019H186.127V155.967Z" fill="black"/>
<path d="M194.178 155.967H186.127V164.019H194.178V155.967Z" fill="black"/>
<path d="M218.333 155.967H210.281V164.019H218.333V155.967Z" fill="black"/>
<path d="M89.5104 164.019H81.459V172.07H89.5104V164.019Z" fill="black"/>
<path d="M97.5612 164.019H89.5098V172.07H97.5612V164.019Z" fill="black"/>
<path d="M105.613 164.019H97.5615V172.07H105.613V164.019Z" fill="black"/>
<path d="M153.922 164.019H145.87V172.07H153.922V164.019Z" fill="black"/>
<path d="M186.127 164.019H178.075V172.07H186.127V164.019Z" fill="black"/>
<path d="M218.333 164.019H210.281V172.07H218.333V164.019Z" fill="black"/>
<path d="M97.5612 172.07H89.5098V180.121H97.5612V172.07Z" fill="black"/>
<path d="M105.613 172.07H97.5615V180.121H105.613V172.07Z" fill="black"/>
<path d="M121.715 172.07H113.664V180.121H121.715V172.07Z" fill="black"/>
<path d="M129.767 172.07H121.716V180.121H129.767V172.07Z" fill="black"/>
<path d="M137.819 172.07H129.768V180.121H137.819V172.07Z" fill="black"/>
<path d="M153.922 172.07H145.87V180.121H153.922V172.07Z" fill="black"/>
<path d="M170.025 172.07H161.974V180.121H170.025V172.07Z" fill="black"/>
<path d="M186.127 172.07H178.075V180.121H186.127V172.07Z" fill="black"/>
<path d="M218.333 172.07H210.281V180.121H218.333V172.07Z" fill="black"/>
<path d="M97.5612 180.121H89.5098V188.173H97.5612V180.121Z" fill="black"/>
<path d="M105.613 180.121H97.5615V188.173H105.613V180.121Z" fill="black"/>
<path d="M113.665 180.121H105.613V188.173H113.665V180.121Z" fill="black"/>
<path d="M137.819 180.121H129.768V188.173H137.819V180.121Z" fill="black"/>
<path d="M145.871 180.121H137.819V188.173H145.871V180.121Z" fill="black"/>
<path d="M153.922 180.121H145.87V188.173H153.922V180.121Z" fill="black"/>
<path d="M186.127 180.121H178.075V188.173H186.127V180.121Z" fill="black"/>
<path d="M202.23 180.121H194.179V188.173H202.23V180.121Z" fill="black"/>
<path d="M105.613 188.173H97.5615V196.224H105.613V188.173Z" fill="black"/>
<path d="M113.665 188.173H105.613V196.224H113.665V188.173Z" fill="black"/>
<path d="M145.871 188.173H137.819V196.224H145.871V188.173Z" fill="black"/>
<path d="M153.922 188.173H145.87V196.224H153.922V188.173Z" fill="black"/>
<path d="M161.972 188.173H153.921V196.224H161.972V188.173Z" fill="black"/>
<path d="M170.025 188.173H161.974V196.224H170.025V188.173Z" fill="black"/>
<path d="M178.076 188.173H170.024V196.224H178.076V188.173Z" fill="black"/>
<path d="M186.127 188.173H178.075V196.224H186.127V188.173Z" fill="black"/>
<path d="M194.178 188.173H186.127V196.224H194.178V188.173Z" fill="black"/>
<path d="M202.23 188.173H194.179V196.224H202.23V188.173Z" fill="black"/>
<path d="M97.5612 196.224H89.5098V204.276H97.5612V196.224Z" fill="black"/>
<path d="M105.613 196.224H97.5615V204.276H105.613V196.224Z" fill="black"/>
<path d="M121.715 196.224H113.664V204.276H121.715V196.224Z" fill="black"/>
<path d="M129.767 196.224H121.716V204.276H129.767V196.224Z" fill="black"/>
<path d="M145.871 196.224H137.819V204.276H145.871V196.224Z" fill="black"/>
<path d="M170.025 196.224H161.974V204.276H170.025V196.224Z" fill="black"/>
<path d="M202.23 196.224H194.179V204.276H202.23V196.224Z" fill="black"/>
<path d="M210.282 196.224H202.23V204.276H210.282V196.224Z" fill="black"/>
<path d="M218.333 196.224H210.281V204.276H218.333V196.224Z" fill="black"/>
<path d="M97.5612 204.276H89.5098V212.327H97.5612V204.276Z" fill="black"/>
<path d="M129.767 204.276H121.716V212.327H129.767V204.276Z" fill="black"/>
<path d="M137.819 204.276H129.768V212.327H137.819V204.276Z" fill="black"/>
<path d="M145.871 204.276H137.819V212.327H145.871V204.276Z" fill="black"/>
<path d="M161.972 204.276H153.921V212.327H161.972V204.276Z" fill="black"/>
<path d="M202.23 204.276H194.179V212.327H202.23V204.276Z" fill="black"/>
<path d="M218.333 204.276H210.281V212.327H218.333V204.276Z" fill="black"/>
<path d="M97.5612 212.327H89.5098V220.379H97.5612V212.327Z" fill="black"/>
<path d="M121.715 212.327H113.664V220.379H121.715V212.327Z" fill="black"/>
<path d="M129.767 212.327H121.716V220.379H129.767V212.327Z" fill="black"/>
<path d="M170.025 212.327H161.974V220.379H170.025V212.327Z" fill="black"/>
<path d="M178.076 212.327H170.024V220.379H178.076V212.327Z" fill="black"/>
<path d="M186.127 212.327H178.075V220.379H186.127V212.327Z" fill="black"/>
<path d="M194.178 212.327H186.127V220.379H194.178V212.327Z" fill="black"/>
<path d="M210.282 212.327H202.23V220.379H210.282V212.327Z" fill="black"/>
<path d="M89.5104 220.379H81.459V228.43H89.5104V220.379Z" fill="black"/>
<path d="M105.613 220.379H97.5615V228.43H105.613V220.379Z" fill="black"/>
<path d="M113.665 220.379H105.613V228.43H113.665V220.379Z" fill="black"/>
<path d="M121.715 220.379H113.664V228.43H121.715V220.379Z" fill="black"/>
<path d="M129.767 220.379H121.716V228.43H129.767V220.379Z" fill="black"/>
<path d="M145.871 220.379H137.819V228.43H145.871V220.379Z" fill="black"/>
<path d="M153.922 220.379H145.87V228.43H153.922V220.379Z" fill="black"/>
<path d="M178.076 220.379H170.024V228.43H178.076V220.379Z" fill="black"/>
<path d="M186.127 220.379H178.075V228.43H186.127V220.379Z" fill="black"/>
<path d="M218.333 220.379H210.281V228.43H218.333V220.379Z" fill="black"/>
<path fill-rule="evenodd" clip-rule="evenodd" d="M17.0479 27.1444H73.4078V83.5043H17.0479V27.1444ZM25.0993 35.1958H65.3564V75.4529H25.0993V35.1958Z" fill="black"/>
<path fill-rule="evenodd" clip-rule="evenodd" d="M161.974 27.1444H218.334V83.5043H161.974V27.1444ZM170.025 35.1958H210.282V75.4529H170.025V35.1958Z" fill="black"/>
<path d="M57.3037 43.2472H33.1494V67.4014H57.3037V43.2472Z" fill="black"/>
<path d="M202.229 43.2472H178.075V67.4014H202.229V43.2472Z" fill="black"/>
<path fill-rule="evenodd" clip-rule="evenodd" d="M17.0479 172.07H73.4078V228.43H17.0479V172.07ZM25.0993 180.121H65.3564V220.379H25.0993V180.121Z" fill="black"/>
<path d="M57.3037 188.173H33.1494V212.327H57.3037V188.173Z" fill="black"/>
</g>
<defs>
<clipPath id="clip0_8926_16769">
<rect width="265.697" height="265.697" fill="white" transform="translate(-15.1582 -5.06131)"/>
</clipPath>
</defs>
</svg>
