<svg width="237" height="260" viewBox="0 0 237 260" fill="none" xmlns="http://www.w3.org/2000/svg">
<g clip-path="url(#clip0_8926_16526)">
<g clip-path="url(#clip1_8926_16526)">
<path d="M98.1162 31.3407H90.0859V39.371H98.1162V31.3407Z" fill="black"/>
<path d="M130.238 39.371H122.208V47.4013H130.238V39.371Z" fill="black"/>
<path d="M146.299 39.371H138.269V47.4013H146.299V39.371Z" fill="black"/>
<path d="M154.329 39.371H146.299V47.4013H154.329V39.371Z" fill="black"/>
<path d="M90.086 47.4013H82.0557V55.4316H90.086V47.4013Z" fill="black"/>
<path d="M138.269 47.4013H130.238V55.4316H138.269V47.4013Z" fill="black"/>
<path d="M90.086 55.4316H82.0557V63.4619H90.086V55.4316Z" fill="black"/>
<path d="M114.177 55.4316H106.146V63.4619H114.177V55.4316Z" fill="black"/>
<path d="M122.207 55.4316H114.177V63.4619H122.207V55.4316Z" fill="black"/>
<path d="M146.299 55.4316H138.269V63.4619H146.299V55.4316Z" fill="black"/>
<path d="M154.329 55.4316H146.299V63.4619H154.329V55.4316Z" fill="black"/>
<path d="M90.086 63.4619H82.0557V71.4922H90.086V63.4619Z" fill="black"/>
<path d="M98.1162 63.4619H90.0859V71.4922H98.1162V63.4619Z" fill="black"/>
<path d="M122.207 63.4619H114.177V71.4922H122.207V63.4619Z" fill="black"/>
<path d="M154.329 63.4619H146.299V71.4922H154.329V63.4619Z" fill="black"/>
<path d="M90.086 71.4922H82.0557V79.5225H90.086V71.4922Z" fill="black"/>
<path d="M98.1162 71.4922H90.0859V79.5225H98.1162V71.4922Z" fill="black"/>
<path d="M106.147 71.4922H98.1162V79.5225H106.147V71.4922Z" fill="black"/>
<path d="M114.177 71.4922H106.146V79.5225H114.177V71.4922Z" fill="black"/>
<path d="M130.238 71.4922H122.208V79.5225H130.238V71.4922Z" fill="black"/>
<path d="M146.299 71.4922H138.269V79.5225H146.299V71.4922Z" fill="black"/>
<path d="M154.329 71.4922H146.299V79.5225H154.329V71.4922Z" fill="black"/>
<path d="M90.086 79.5225H82.0557V87.5528H90.086V79.5225Z" fill="black"/>
<path d="M106.147 79.5225H98.1162V87.5528H106.147V79.5225Z" fill="black"/>
<path d="M122.207 79.5225H114.177V87.5528H122.207V79.5225Z" fill="black"/>
<path d="M138.269 79.5225H130.238V87.5528H138.269V79.5225Z" fill="black"/>
<path d="M154.329 79.5225H146.299V87.5528H154.329V79.5225Z" fill="black"/>
<path d="M90.086 87.5528H82.0557V95.5832H90.086V87.5528Z" fill="black"/>
<path d="M106.147 87.5528H98.1162V95.5832H106.147V87.5528Z" fill="black"/>
<path d="M114.177 87.5528H106.146V95.5832H114.177V87.5528Z" fill="black"/>
<path d="M122.207 87.5528H114.177V95.5832H122.207V87.5528Z" fill="black"/>
<path d="M130.238 87.5528H122.208V95.5832H130.238V87.5528Z" fill="black"/>
<path d="M138.269 87.5528H130.238V95.5832H138.269V87.5528Z" fill="black"/>
<path d="M25.8438 95.5831H17.8135V103.613H25.8438V95.5831Z" fill="black"/>
<path d="M41.9043 95.5831H33.874V103.613H41.9043V95.5831Z" fill="black"/>
<path d="M49.9346 95.5831H41.9043V103.613H49.9346V95.5831Z" fill="black"/>
<path d="M57.9649 95.5831H49.9346V103.613H57.9649V95.5831Z" fill="black"/>
<path d="M65.9951 95.5831H57.9648V103.613H65.9951V95.5831Z" fill="black"/>
<path d="M74.0254 95.5831H65.9951V103.613H74.0254V95.5831Z" fill="black"/>
<path d="M98.1162 95.5831H90.0859V103.613H98.1162V95.5831Z" fill="black"/>
<path d="M114.177 95.5831H106.146V103.613H114.177V95.5831Z" fill="black"/>
<path d="M146.299 95.5831H138.269V103.613H146.299V95.5831Z" fill="black"/>
<path d="M154.329 95.5831H146.299V103.613H154.329V95.5831Z" fill="black"/>
<path d="M170.39 95.5831H162.359V103.613H170.39V95.5831Z" fill="black"/>
<path d="M178.42 95.5831H170.39V103.613H178.42V95.5831Z" fill="black"/>
<path d="M186.45 95.5831H178.42V103.613H186.45V95.5831Z" fill="black"/>
<path d="M194.48 95.5831H186.45V103.613H194.48V95.5831Z" fill="black"/>
<path d="M202.511 95.5831H194.48V103.613H202.511V95.5831Z" fill="black"/>
<path d="M25.8438 103.613H17.8135V111.644H25.8438V103.613Z" fill="black"/>
<path d="M41.9043 103.613H33.874V111.644H41.9043V103.613Z" fill="black"/>
<path d="M49.9346 103.613H41.9043V111.644H49.9346V103.613Z" fill="black"/>
<path d="M57.9649 103.613H49.9346V111.644H57.9649V103.613Z" fill="black"/>
<path d="M82.0557 103.613H74.0254V111.644H82.0557V103.613Z" fill="black"/>
<path d="M90.086 103.613H82.0557V111.644H90.086V103.613Z" fill="black"/>
<path d="M154.329 103.613H146.299V111.644H154.329V103.613Z" fill="black"/>
<path d="M162.359 103.613H154.329V111.644H162.359V103.613Z" fill="black"/>
<path d="M178.42 103.613H170.39V111.644H178.42V103.613Z" fill="black"/>
<path d="M186.45 103.613H178.42V111.644H186.45V103.613Z" fill="black"/>
<path d="M218.571 103.613H210.541V111.644H218.571V103.613Z" fill="black"/>
<path d="M57.9649 111.644H49.9346V119.674H57.9649V111.644Z" fill="black"/>
<path d="M65.9951 111.644H57.9648V119.674H65.9951V111.644Z" fill="black"/>
<path d="M74.0254 111.644H65.9951V119.674H74.0254V111.644Z" fill="black"/>
<path d="M82.0557 111.644H74.0254V119.674H82.0557V111.644Z" fill="black"/>
<path d="M98.1162 111.644H90.0859V119.674H98.1162V111.644Z" fill="black"/>
<path d="M106.147 111.644H98.1162V119.674H106.147V111.644Z" fill="black"/>
<path d="M114.177 111.644H106.146V119.674H114.177V111.644Z" fill="black"/>
<path d="M130.238 111.644H122.208V119.674H130.238V111.644Z" fill="black"/>
<path d="M162.359 111.644H154.329V119.674H162.359V111.644Z" fill="black"/>
<path d="M170.39 111.644H162.359V119.674H170.39V111.644Z" fill="black"/>
<path d="M186.45 111.644H178.42V119.674H186.45V111.644Z" fill="black"/>
<path d="M202.511 111.644H194.48V119.674H202.511V111.644Z" fill="black"/>
<path d="M33.8741 119.674H25.8438V127.704H33.8741V119.674Z" fill="black"/>
<path d="M41.9043 119.674H33.874V127.704H41.9043V119.674Z" fill="black"/>
<path d="M82.0557 119.674H74.0254V127.704H82.0557V119.674Z" fill="black"/>
<path d="M90.086 119.674H82.0557V127.704H90.086V119.674Z" fill="black"/>
<path d="M98.1162 119.674H90.0859V127.704H98.1162V119.674Z" fill="black"/>
<path d="M138.269 119.674H130.238V127.704H138.269V119.674Z" fill="black"/>
<path d="M162.359 119.674H154.329V127.704H162.359V119.674Z" fill="black"/>
<path d="M41.9043 127.704H33.874V135.735H41.9043V127.704Z" fill="black"/>
<path d="M57.9649 127.704H49.9346V135.735H57.9649V127.704Z" fill="black"/>
<path d="M65.9951 127.704H57.9648V135.735H65.9951V127.704Z" fill="black"/>
<path d="M74.0254 127.704H65.9951V135.735H74.0254V127.704Z" fill="black"/>
<path d="M82.0557 127.704H74.0254V135.735H82.0557V127.704Z" fill="black"/>
<path d="M90.086 127.704H82.0557V135.735H90.086V127.704Z" fill="black"/>
<path d="M106.147 127.704H98.1162V135.735H106.147V127.704Z" fill="black"/>
<path d="M122.207 127.704H114.177V135.735H122.207V127.704Z" fill="black"/>
<path d="M138.269 127.704H130.238V135.735H138.269V127.704Z" fill="black"/>
<path d="M146.299 127.704H138.269V135.735H146.299V127.704Z" fill="black"/>
<path d="M154.329 127.704H146.299V135.735H154.329V127.704Z" fill="black"/>
<path d="M162.359 127.704H154.329V135.735H162.359V127.704Z" fill="black"/>
<path d="M170.39 127.704H162.359V135.735H170.39V127.704Z" fill="black"/>
<path d="M178.42 127.704H170.39V135.735H178.42V127.704Z" fill="black"/>
<path d="M186.45 127.704H178.42V135.735H186.45V127.704Z" fill="black"/>
<path d="M194.48 127.704H186.45V135.735H194.48V127.704Z" fill="black"/>
<path d="M210.541 127.704H202.511V135.735H210.541V127.704Z" fill="black"/>
<path d="M218.571 127.704H210.541V135.735H218.571V127.704Z" fill="black"/>
<path d="M25.8438 135.735H17.8135V143.765H25.8438V135.735Z" fill="black"/>
<path d="M33.8741 135.735H25.8438V143.765H33.8741V135.735Z" fill="black"/>
<path d="M65.9951 135.735H57.9648V143.765H65.9951V135.735Z" fill="black"/>
<path d="M82.0557 135.735H74.0254V143.765H82.0557V135.735Z" fill="black"/>
<path d="M98.1162 135.735H90.0859V143.765H98.1162V135.735Z" fill="black"/>
<path d="M122.207 135.735H114.177V143.765H122.207V135.735Z" fill="black"/>
<path d="M146.299 135.735H138.269V143.765H146.299V135.735Z" fill="black"/>
<path d="M154.329 135.735H146.299V143.765H154.329V135.735Z" fill="black"/>
<path d="M162.359 135.735H154.329V143.765H162.359V135.735Z" fill="black"/>
<path d="M178.42 135.735H170.39V143.765H178.42V135.735Z" fill="black"/>
<path d="M186.45 135.735H178.42V143.765H186.45V135.735Z" fill="black"/>
<path d="M218.571 135.735H210.541V143.765H218.571V135.735Z" fill="black"/>
<path d="M25.8438 143.765H17.8135V151.795H25.8438V143.765Z" fill="black"/>
<path d="M49.9346 143.765H41.9043V151.795H49.9346V143.765Z" fill="black"/>
<path d="M57.9649 143.765H49.9346V151.795H57.9649V143.765Z" fill="black"/>
<path d="M65.9951 143.765H57.9648V151.795H65.9951V143.765Z" fill="black"/>
<path d="M74.0254 143.765H65.9951V151.795H74.0254V143.765Z" fill="black"/>
<path d="M82.0557 143.765H74.0254V151.795H82.0557V143.765Z" fill="black"/>
<path d="M90.086 143.765H82.0557V151.795H90.086V143.765Z" fill="black"/>
<path d="M106.147 143.765H98.1162V151.795H106.147V143.765Z" fill="black"/>
<path d="M122.207 143.765H114.177V151.795H122.207V143.765Z" fill="black"/>
<path d="M130.238 143.765H122.208V151.795H130.238V143.765Z" fill="black"/>
<path d="M146.299 143.765H138.269V151.795H146.299V143.765Z" fill="black"/>
<path d="M162.359 143.765H154.329V151.795H162.359V143.765Z" fill="black"/>
<path d="M170.39 143.765H162.359V151.795H170.39V143.765Z" fill="black"/>
<path d="M186.45 143.765H178.42V151.795H186.45V143.765Z" fill="black"/>
<path d="M202.511 143.765H194.48V151.795H202.511V143.765Z" fill="black"/>
<path d="M25.8438 151.795H17.8135V159.826H25.8438V151.795Z" fill="black"/>
<path d="M57.9649 151.795H49.9346V159.826H57.9649V151.795Z" fill="black"/>
<path d="M65.9951 151.795H57.9648V159.826H65.9951V151.795Z" fill="black"/>
<path d="M122.207 151.795H114.177V159.826H122.207V151.795Z" fill="black"/>
<path d="M138.269 151.795H130.238V159.826H138.269V151.795Z" fill="black"/>
<path d="M154.329 151.795H146.299V159.826H154.329V151.795Z" fill="black"/>
<path d="M210.541 151.795H202.511V159.826H210.541V151.795Z" fill="black"/>
<path d="M218.571 151.795H210.541V159.826H218.571V151.795Z" fill="black"/>
<path d="M25.8438 159.826H17.8135V167.856H25.8438V159.826Z" fill="black"/>
<path d="M41.9043 159.826H33.874V167.856H41.9043V159.826Z" fill="black"/>
<path d="M49.9346 159.826H41.9043V167.856H49.9346V159.826Z" fill="black"/>
<path d="M65.9951 159.826H57.9648V167.856H65.9951V159.826Z" fill="black"/>
<path d="M74.0254 159.826H65.9951V167.856H74.0254V159.826Z" fill="black"/>
<path d="M82.0557 159.826H74.0254V167.856H82.0557V159.826Z" fill="black"/>
<path d="M90.086 159.826H82.0557V167.856H90.086V159.826Z" fill="black"/>
<path d="M98.1162 159.826H90.0859V167.856H98.1162V159.826Z" fill="black"/>
<path d="M122.207 159.826H114.177V167.856H122.207V159.826Z" fill="black"/>
<path d="M130.238 159.826H122.208V167.856H130.238V159.826Z" fill="black"/>
<path d="M146.299 159.826H138.269V167.856H146.299V159.826Z" fill="black"/>
<path d="M154.329 159.826H146.299V167.856H154.329V159.826Z" fill="black"/>
<path d="M162.359 159.826H154.329V167.856H162.359V159.826Z" fill="black"/>
<path d="M170.39 159.826H162.359V167.856H170.39V159.826Z" fill="black"/>
<path d="M178.42 159.826H170.39V167.856H178.42V159.826Z" fill="black"/>
<path d="M186.45 159.826H178.42V167.856H186.45V159.826Z" fill="black"/>
<path d="M194.48 159.826H186.45V167.856H194.48V159.826Z" fill="black"/>
<path d="M218.571 159.826H210.541V167.856H218.571V159.826Z" fill="black"/>
<path d="M90.086 167.856H82.0557V175.886H90.086V167.856Z" fill="black"/>
<path d="M106.147 167.856H98.1162V175.886H106.147V167.856Z" fill="black"/>
<path d="M122.207 167.856H114.177V175.886H122.207V167.856Z" fill="black"/>
<path d="M138.269 167.856H130.238V175.886H138.269V167.856Z" fill="black"/>
<path d="M154.329 167.856H146.299V175.886H154.329V167.856Z" fill="black"/>
<path d="M186.45 167.856H178.42V175.886H186.45V167.856Z" fill="black"/>
<path d="M218.571 167.856H210.541V175.886H218.571V167.856Z" fill="black"/>
<path d="M130.238 175.886H122.208V183.916H130.238V175.886Z" fill="black"/>
<path d="M146.299 175.886H138.269V183.916H146.299V175.886Z" fill="black"/>
<path d="M154.329 175.886H146.299V183.916H154.329V175.886Z" fill="black"/>
<path d="M170.39 175.886H162.359V183.916H170.39V175.886Z" fill="black"/>
<path d="M186.45 175.886H178.42V183.916H186.45V175.886Z" fill="black"/>
<path d="M202.511 175.886H194.48V183.916H202.511V175.886Z" fill="black"/>
<path d="M210.541 175.886H202.511V183.916H210.541V175.886Z" fill="black"/>
<path d="M218.571 175.886H210.541V183.916H218.571V175.886Z" fill="black"/>
<path d="M90.086 183.916H82.0557V191.947H90.086V183.916Z" fill="black"/>
<path d="M114.177 183.916H106.146V191.947H114.177V183.916Z" fill="black"/>
<path d="M122.207 183.916H114.177V191.947H122.207V183.916Z" fill="black"/>
<path d="M138.269 183.916H130.238V191.947H138.269V183.916Z" fill="black"/>
<path d="M154.329 183.916H146.299V191.947H154.329V183.916Z" fill="black"/>
<path d="M186.45 183.916H178.42V191.947H186.45V183.916Z" fill="black"/>
<path d="M194.48 183.916H186.45V191.947H194.48V183.916Z" fill="black"/>
<path d="M90.086 191.947H82.0557V199.977H90.086V191.947Z" fill="black"/>
<path d="M98.1162 191.947H90.0859V199.977H98.1162V191.947Z" fill="black"/>
<path d="M122.207 191.947H114.177V199.977H122.207V191.947Z" fill="black"/>
<path d="M130.238 191.947H122.208V199.977H130.238V191.947Z" fill="black"/>
<path d="M138.269 191.947H130.238V199.977H138.269V191.947Z" fill="black"/>
<path d="M154.329 191.947H146.299V199.977H154.329V191.947Z" fill="black"/>
<path d="M162.359 191.947H154.329V199.977H162.359V191.947Z" fill="black"/>
<path d="M170.39 191.947H162.359V199.977H170.39V191.947Z" fill="black"/>
<path d="M178.42 191.947H170.39V199.977H178.42V191.947Z" fill="black"/>
<path d="M186.45 191.947H178.42V199.977H186.45V191.947Z" fill="black"/>
<path d="M194.48 191.947H186.45V199.977H194.48V191.947Z" fill="black"/>
<path d="M90.086 199.977H82.0557V208.007H90.086V199.977Z" fill="black"/>
<path d="M98.1162 199.977H90.0859V208.007H98.1162V199.977Z" fill="black"/>
<path d="M122.207 199.977H114.177V208.007H122.207V199.977Z" fill="black"/>
<path d="M146.299 199.977H138.269V208.007H146.299V199.977Z" fill="black"/>
<path d="M154.329 199.977H146.299V208.007H154.329V199.977Z" fill="black"/>
<path d="M170.39 199.977H162.359V208.007H170.39V199.977Z" fill="black"/>
<path d="M186.45 199.977H178.42V208.007H186.45V199.977Z" fill="black"/>
<path d="M210.541 199.977H202.511V208.007H210.541V199.977Z" fill="black"/>
<path d="M218.571 199.977H210.541V208.007H218.571V199.977Z" fill="black"/>
<path d="M90.086 208.007H82.0557V216.038H90.086V208.007Z" fill="black"/>
<path d="M130.238 208.007H122.208V216.038H130.238V208.007Z" fill="black"/>
<path d="M162.359 208.007H154.329V216.038H162.359V208.007Z" fill="black"/>
<path d="M170.39 208.007H162.359V216.038H170.39V208.007Z" fill="black"/>
<path d="M186.45 208.007H178.42V216.038H186.45V208.007Z" fill="black"/>
<path d="M202.511 208.007H194.48V216.038H202.511V208.007Z" fill="black"/>
<path d="M218.571 208.007H210.541V216.038H218.571V208.007Z" fill="black"/>
<path d="M98.1162 216.038H90.0859V224.068H98.1162V216.038Z" fill="black"/>
<path d="M114.177 216.038H106.146V224.068H114.177V216.038Z" fill="black"/>
<path d="M122.207 216.038H114.177V224.068H122.207V216.038Z" fill="black"/>
<path d="M130.238 216.038H122.208V224.068H130.238V216.038Z" fill="black"/>
<path d="M138.269 216.038H130.238V224.068H138.269V216.038Z" fill="black"/>
<path d="M146.299 216.038H138.269V224.068H146.299V216.038Z" fill="black"/>
<path d="M154.329 216.038H146.299V224.068H154.329V216.038Z" fill="black"/>
<path d="M170.39 216.038H162.359V224.068H170.39V216.038Z" fill="black"/>
<path d="M178.42 216.038H170.39V224.068H178.42V216.038Z" fill="black"/>
<path d="M186.45 216.038H178.42V224.068H186.45V216.038Z" fill="black"/>
<path d="M194.48 216.038H186.45V224.068H194.48V216.038Z" fill="black"/>
<path d="M210.541 216.038H202.511V224.068H210.541V216.038Z" fill="black"/>
<path d="M90.086 224.068H82.0557V232.098H90.086V224.068Z" fill="black"/>
<path d="M98.1162 224.068H90.0859V232.098H98.1162V224.068Z" fill="black"/>
<path d="M122.207 224.068H114.177V232.098H122.207V224.068Z" fill="black"/>
<path d="M154.329 224.068H146.299V232.098H154.329V224.068Z" fill="black"/>
<path d="M202.511 224.068H194.48V232.098H202.511V224.068Z" fill="black"/>
<path d="M210.541 224.068H202.511V232.098H210.541V224.068Z" fill="black"/>
<path d="M218.571 224.068H210.541V232.098H218.571V224.068Z" fill="black"/>
<path fill-rule="evenodd" clip-rule="evenodd" d="M17.8135 31.3407H74.0256V87.5528H17.8135V31.3407ZM25.8438 39.371H65.9953V79.5225H25.8438V39.371Z" fill="black"/>
<path fill-rule="evenodd" clip-rule="evenodd" d="M162.359 31.3407H218.571V87.5528H162.359V31.3407ZM170.39 39.371H210.541V79.5225H170.39V39.371Z" fill="black"/>
<path d="M57.9649 47.4013H33.874V71.4922H57.9649V47.4013Z" fill="black"/>
<path d="M202.511 47.4013H178.42V71.4922H202.511V47.4013Z" fill="black"/>
<path fill-rule="evenodd" clip-rule="evenodd" d="M17.8135 175.886H74.0256V232.098H17.8135V175.886ZM25.8438 183.916H65.9953V224.068H25.8438V183.916Z" fill="black"/>
<path d="M57.9649 191.947H33.874V216.038H57.9649V191.947Z" fill="black"/>
</g>
</g>
<defs>
<clipPath id="clip0_8926_16526">
<rect width="265" height="265" fill="white" transform="translate(-14.3076 -0.780487)"/>
</clipPath>
<clipPath id="clip1_8926_16526">
<rect width="265" height="265" fill="white" transform="translate(-14.3076 -0.780487)"/>
</clipPath>
</defs>
</svg>
